<svg width="22" height="22" viewBox="0 0 22 22" fill="none" xmlns="http://www.w3.org/2000/svg">
<path d="M9.25826 8.68499C9.37721 9.92802 9.43493 12.2909 8.49034 14.1491C8.41362 14.299 8.3376 14.4447 8.26159 14.5841C6.61877 15.088 4.88374 16.0425 4.59445 17.0934C4.48113 17.5086 4.5853 17.9239 4.88022 18.2329C5.18781 18.5532 5.57001 18.7235 5.9881 18.7235C6.99956 18.7235 8.05113 17.7585 9.19984 15.7764C9.61653 15.6737 12.0174 15.3809 12.5221 15.3865C13.9066 16.802 15.0271 17.4896 15.9422 17.4896C16.5165 17.4896 17.0113 17.1996 17.2999 16.6922C17.4998 16.3374 17.5005 15.9278 17.302 15.5681C16.7277 14.5306 14.4908 14.1083 13.1492 14.0118C13.0338 13.8858 12.9169 13.7549 12.7973 13.6191C11.4233 12.0495 10.8617 9.7436 10.654 8.53859C10.628 8.26267 10.5984 8.03321 10.5738 7.86499C10.4851 7.22729 10.0846 7.13156 9.85373 7.13156C9.65313 7.13156 9.46097 7.21814 9.32794 7.36947C9.11326 7.61301 9.14564 7.87625 9.16676 8.05222C9.18647 8.22537 9.21744 8.45342 9.25826 8.68499ZM6.04723 17.3151C6.17885 17.1694 6.43576 16.9547 6.825 16.7224C6.4618 17.1166 6.19434 17.2792 6.04723 17.3151ZM15.869 16.0882C15.7514 16.0735 15.5276 16.0143 15.1686 15.794C15.4783 15.8947 15.7141 15.9989 15.869 16.0882ZM10.4781 12.6133C10.735 13.1348 11.0207 13.6099 11.3347 14.0358C11.1812 14.0506 10.0987 14.1906 10.0029 14.2026C10.2028 13.7127 10.3612 13.1813 10.4781 12.6133Z" fill="#0494FC"/>
<path d="M7.80548 0L2.1084 6.01523V22H19.8922V0H7.80548ZM7.30292 2.52969V5.19523H4.77816L7.30292 2.52969ZM18.5162 20.6246H3.48305V6.57058H8.67827V1.37535H18.5176V20.6246H18.5162Z" fill="#0494FC"/>
</svg>
